<mxfile host="app.diagrams.net" modified="2021-10-01T14:39:43.908Z" agent="5.0 (X11; Linux x86_64) AppleWebKit/537.36 (KHTML, like Gecko) Chrome/94.0.4606.71 Safari/537.36" etag="K-jDs9b2ahNyNP1bctx5" version="15.3.8" type="github">
  <diagram id="ZbrEx5VMZJ2YkUr5mjX0" name="Page-1">
    <mxGraphModel dx="2182" dy="3111" grid="1" gridSize="10" guides="1" tooltips="1" connect="1" arrows="1" fold="1" page="1" pageScale="1" pageWidth="827" pageHeight="1169" math="0" shadow="0">
      <root>
        <mxCell id="0" />
        <mxCell id="1" parent="0" />
        <mxCell id="8EJtq8u64zGqU2wGf3lV-6" value="" style="edgeStyle=orthogonalEdgeStyle;rounded=0;orthogonalLoop=1;jettySize=auto;html=1;entryX=0;entryY=0.5;entryDx=0;entryDy=0;" edge="1" parent="1" source="8EJtq8u64zGqU2wGf3lV-2" target="8EJtq8u64zGqU2wGf3lV-7">
          <mxGeometry relative="1" as="geometry">
            <mxPoint x="600" y="390" as="targetPoint" />
          </mxGeometry>
        </mxCell>
        <mxCell id="8EJtq8u64zGqU2wGf3lV-38" value="" style="edgeStyle=orthogonalEdgeStyle;rounded=0;orthogonalLoop=1;jettySize=auto;html=1;" edge="1" parent="1" source="8EJtq8u64zGqU2wGf3lV-2">
          <mxGeometry relative="1" as="geometry">
            <mxPoint x="270" y="390" as="targetPoint" />
          </mxGeometry>
        </mxCell>
        <mxCell id="8EJtq8u64zGqU2wGf3lV-136" style="edgeStyle=orthogonalEdgeStyle;rounded=0;orthogonalLoop=1;jettySize=auto;html=1;entryX=0.5;entryY=0;entryDx=0;entryDy=0;" edge="1" parent="1" source="8EJtq8u64zGqU2wGf3lV-2" target="8EJtq8u64zGqU2wGf3lV-118">
          <mxGeometry relative="1" as="geometry" />
        </mxCell>
        <mxCell id="8EJtq8u64zGqU2wGf3lV-2" value="&lt;b&gt;&lt;font style=&quot;font-size: 18px&quot;&gt;Spring test&lt;/font&gt;&lt;/b&gt;" style="rounded=1;whiteSpace=wrap;html=1;gradientColor=#ea6b66;fillColor=#f8cecc;strokeColor=#b85450;" vertex="1" parent="1">
          <mxGeometry x="350" y="350" width="170" height="80" as="geometry" />
        </mxCell>
        <mxCell id="8EJtq8u64zGqU2wGf3lV-9" value="" style="edgeStyle=orthogonalEdgeStyle;rounded=0;orthogonalLoop=1;jettySize=auto;html=1;" edge="1" parent="1" source="8EJtq8u64zGqU2wGf3lV-7" target="8EJtq8u64zGqU2wGf3lV-8">
          <mxGeometry relative="1" as="geometry" />
        </mxCell>
        <mxCell id="8EJtq8u64zGqU2wGf3lV-7" value="Classes" style="rounded=1;whiteSpace=wrap;html=1;gradientColor=#d5739d;fillColor=#e6d0de;strokeColor=#996185;" vertex="1" parent="1">
          <mxGeometry x="600" y="360" width="120" height="60" as="geometry" />
        </mxCell>
        <mxCell id="8EJtq8u64zGqU2wGf3lV-11" value="" style="edgeStyle=orthogonalEdgeStyle;rounded=0;orthogonalLoop=1;jettySize=auto;html=1;" edge="1" parent="1" source="8EJtq8u64zGqU2wGf3lV-8" target="8EJtq8u64zGqU2wGf3lV-10">
          <mxGeometry relative="1" as="geometry" />
        </mxCell>
        <mxCell id="8EJtq8u64zGqU2wGf3lV-17" style="edgeStyle=orthogonalEdgeStyle;rounded=0;orthogonalLoop=1;jettySize=auto;html=1;entryX=0;entryY=0.5;entryDx=0;entryDy=0;" edge="1" parent="1" source="8EJtq8u64zGqU2wGf3lV-8" target="8EJtq8u64zGqU2wGf3lV-16">
          <mxGeometry relative="1" as="geometry" />
        </mxCell>
        <mxCell id="8EJtq8u64zGqU2wGf3lV-21" style="edgeStyle=orthogonalEdgeStyle;rounded=0;orthogonalLoop=1;jettySize=auto;html=1;entryX=0;entryY=0.5;entryDx=0;entryDy=0;" edge="1" parent="1" source="8EJtq8u64zGqU2wGf3lV-8" target="8EJtq8u64zGqU2wGf3lV-20">
          <mxGeometry relative="1" as="geometry" />
        </mxCell>
        <mxCell id="8EJtq8u64zGqU2wGf3lV-27" style="edgeStyle=orthogonalEdgeStyle;rounded=0;orthogonalLoop=1;jettySize=auto;html=1;entryX=0;entryY=0.5;entryDx=0;entryDy=0;" edge="1" parent="1" source="8EJtq8u64zGqU2wGf3lV-8" target="8EJtq8u64zGqU2wGf3lV-24">
          <mxGeometry relative="1" as="geometry" />
        </mxCell>
        <mxCell id="8EJtq8u64zGqU2wGf3lV-32" style="edgeStyle=orthogonalEdgeStyle;rounded=0;orthogonalLoop=1;jettySize=auto;html=1;entryX=0;entryY=0.5;entryDx=0;entryDy=0;" edge="1" parent="1" source="8EJtq8u64zGqU2wGf3lV-8" target="8EJtq8u64zGqU2wGf3lV-29">
          <mxGeometry relative="1" as="geometry" />
        </mxCell>
        <mxCell id="8EJtq8u64zGqU2wGf3lV-36" style="edgeStyle=orthogonalEdgeStyle;rounded=0;orthogonalLoop=1;jettySize=auto;html=1;entryX=0;entryY=0.5;entryDx=0;entryDy=0;" edge="1" parent="1" source="8EJtq8u64zGqU2wGf3lV-8" target="8EJtq8u64zGqU2wGf3lV-33">
          <mxGeometry relative="1" as="geometry" />
        </mxCell>
        <UserObject label="org.springframework.test.util" link="org.springframework.test.util" id="8EJtq8u64zGqU2wGf3lV-8">
          <mxCell style="rounded=1;whiteSpace=wrap;html=1;gradientColor=#7ea6e0;fillColor=#dae8fc;strokeColor=#6c8ebf;" vertex="1" parent="1">
            <mxGeometry x="800" y="360" width="190" height="60" as="geometry" />
          </mxCell>
        </UserObject>
        <mxCell id="8EJtq8u64zGqU2wGf3lV-13" value="" style="edgeStyle=orthogonalEdgeStyle;rounded=0;orthogonalLoop=1;jettySize=auto;html=1;" edge="1" parent="1" source="8EJtq8u64zGqU2wGf3lV-10" target="8EJtq8u64zGqU2wGf3lV-12">
          <mxGeometry relative="1" as="geometry" />
        </mxCell>
        <UserObject label="ReflectionTestUtils" link="org.springframework.test.util" id="8EJtq8u64zGqU2wGf3lV-10">
          <mxCell style="rounded=0;whiteSpace=wrap;html=1;" vertex="1" parent="1">
            <mxGeometry x="1070" y="360" width="190" height="60" as="geometry" />
          </mxCell>
        </UserObject>
        <UserObject label="ORM Entities related testing â€“ set value for private field, normally handled by ORM" link="org.springframework.test.util" id="8EJtq8u64zGqU2wGf3lV-12">
          <mxCell style="rounded=0;whiteSpace=wrap;html=1;" vertex="1" parent="1">
            <mxGeometry x="1340" y="360" width="250" height="60" as="geometry" />
          </mxCell>
        </UserObject>
        <UserObject label="Manual dependency injection into private field, normally handled by @Autowired,&#xa;@Inject" link="org.springframework.test.util" id="8EJtq8u64zGqU2wGf3lV-14">
          <mxCell style="rounded=0;whiteSpace=wrap;html=1;" vertex="1" parent="1">
            <mxGeometry x="1340" y="420" width="250" height="60" as="geometry" />
          </mxCell>
        </UserObject>
        <UserObject label="PostConstruct and @PreDestroy lifecycle callback methods testing" link="org.springframework.test.util" id="8EJtq8u64zGqU2wGf3lV-15">
          <mxCell style="rounded=0;whiteSpace=wrap;html=1;" vertex="1" parent="1">
            <mxGeometry x="1340" y="300" width="250" height="60" as="geometry" />
          </mxCell>
        </UserObject>
        <mxCell id="8EJtq8u64zGqU2wGf3lV-19" value="" style="edgeStyle=orthogonalEdgeStyle;rounded=0;orthogonalLoop=1;jettySize=auto;html=1;" edge="1" parent="1" source="8EJtq8u64zGqU2wGf3lV-16" target="8EJtq8u64zGqU2wGf3lV-18">
          <mxGeometry relative="1" as="geometry" />
        </mxCell>
        <UserObject label="AopTestUtils" link="org.springframework.test.util" id="8EJtq8u64zGqU2wGf3lV-16">
          <mxCell style="rounded=0;whiteSpace=wrap;html=1;" vertex="1" parent="1">
            <mxGeometry x="1070" y="520" width="190" height="60" as="geometry" />
          </mxCell>
        </UserObject>
        <UserObject label="Aspect Oriented Programming Related Testing" link="org.springframework.test.util" id="8EJtq8u64zGqU2wGf3lV-18">
          <mxCell style="rounded=0;whiteSpace=wrap;html=1;" vertex="1" parent="1">
            <mxGeometry x="1340" y="520" width="190" height="60" as="geometry" />
          </mxCell>
        </UserObject>
        <mxCell id="8EJtq8u64zGqU2wGf3lV-23" value="" style="edgeStyle=orthogonalEdgeStyle;rounded=0;orthogonalLoop=1;jettySize=auto;html=1;" edge="1" parent="1" source="8EJtq8u64zGqU2wGf3lV-20" target="8EJtq8u64zGqU2wGf3lV-22">
          <mxGeometry relative="1" as="geometry" />
        </mxCell>
        <UserObject label="org.springframework.test.web" link="org.springframework.test.web" id="8EJtq8u64zGqU2wGf3lV-20">
          <mxCell style="rounded=0;whiteSpace=wrap;html=1;" vertex="1" parent="1">
            <mxGeometry x="1070" y="640" width="190" height="60" as="geometry" />
          </mxCell>
        </UserObject>
        <UserObject label="Unit Testing for Spring MVC Controllers" link="org.springframework.test.web" id="8EJtq8u64zGqU2wGf3lV-22">
          <mxCell style="rounded=0;whiteSpace=wrap;html=1;" vertex="1" parent="1">
            <mxGeometry x="1340" y="640" width="190" height="60" as="geometry" />
          </mxCell>
        </UserObject>
        <mxCell id="8EJtq8u64zGqU2wGf3lV-26" value="" style="edgeStyle=orthogonalEdgeStyle;rounded=0;orthogonalLoop=1;jettySize=auto;html=1;" edge="1" parent="1" source="8EJtq8u64zGqU2wGf3lV-24" target="8EJtq8u64zGqU2wGf3lV-25">
          <mxGeometry relative="1" as="geometry" />
        </mxCell>
        <UserObject label="org.springframework.mock.env" link="org.springframework.mock.env" id="8EJtq8u64zGqU2wGf3lV-24">
          <mxCell style="rounded=0;whiteSpace=wrap;html=1;" vertex="1" parent="1">
            <mxGeometry x="1070" y="200" width="190" height="60" as="geometry" />
          </mxCell>
        </UserObject>
        <UserObject label="mock implementations of the Environment and PropertySource" link="org.springframework.mock.env" id="8EJtq8u64zGqU2wGf3lV-25">
          <mxCell style="rounded=0;whiteSpace=wrap;html=1;" vertex="1" parent="1">
            <mxGeometry x="1340" y="200" width="190" height="60" as="geometry" />
          </mxCell>
        </UserObject>
        <UserObject label="MockEnvironment, MockPropertySource" link="org.springframework.mock.env" id="8EJtq8u64zGqU2wGf3lV-28">
          <mxCell style="rounded=0;whiteSpace=wrap;html=1;" vertex="1" parent="1">
            <mxGeometry x="1340" y="140" width="190" height="60" as="geometry" />
          </mxCell>
        </UserObject>
        <mxCell id="8EJtq8u64zGqU2wGf3lV-31" value="" style="edgeStyle=orthogonalEdgeStyle;rounded=0;orthogonalLoop=1;jettySize=auto;html=1;" edge="1" parent="1" source="8EJtq8u64zGqU2wGf3lV-29" target="8EJtq8u64zGqU2wGf3lV-30">
          <mxGeometry relative="1" as="geometry" />
        </mxCell>
        <UserObject label="org.springframework.mock.jndi" link="org.springframework.mock.jndi" id="8EJtq8u64zGqU2wGf3lV-29">
          <mxCell style="rounded=0;whiteSpace=wrap;html=1;" vertex="1" parent="1">
            <mxGeometry x="1070" y="50" width="190" height="60" as="geometry" />
          </mxCell>
        </UserObject>
        <UserObject label="Mock implementation of JNDI SPI â€“ usually used for Java EE" link="org.springframework.mock.jndi" id="8EJtq8u64zGqU2wGf3lV-30">
          <mxCell style="rounded=0;whiteSpace=wrap;html=1;" vertex="1" parent="1">
            <mxGeometry x="1340" y="50" width="190" height="60" as="geometry" />
          </mxCell>
        </UserObject>
        <mxCell id="8EJtq8u64zGqU2wGf3lV-35" value="" style="edgeStyle=orthogonalEdgeStyle;rounded=0;orthogonalLoop=1;jettySize=auto;html=1;" edge="1" parent="1" source="8EJtq8u64zGqU2wGf3lV-33" target="8EJtq8u64zGqU2wGf3lV-34">
          <mxGeometry relative="1" as="geometry" />
        </mxCell>
        <UserObject label="org.springframework.mock.web" link="org.springframework.mock.web" id="8EJtq8u64zGqU2wGf3lV-33">
          <mxCell style="rounded=0;whiteSpace=wrap;html=1;" vertex="1" parent="1">
            <mxGeometry x="1070" y="-60" width="190" height="60" as="geometry" />
          </mxCell>
        </UserObject>
        <UserObject label="Servlet API mock objects" link="org.springframework.mock.web" id="8EJtq8u64zGqU2wGf3lV-34">
          <mxCell style="rounded=0;whiteSpace=wrap;html=1;" vertex="1" parent="1">
            <mxGeometry x="1340" y="-60" width="190" height="60" as="geometry" />
          </mxCell>
        </UserObject>
        <mxCell id="8EJtq8u64zGqU2wGf3lV-41" value="" style="edgeStyle=orthogonalEdgeStyle;rounded=0;orthogonalLoop=1;jettySize=auto;html=1;" edge="1" parent="1" source="8EJtq8u64zGqU2wGf3lV-39" target="8EJtq8u64zGqU2wGf3lV-40">
          <mxGeometry relative="1" as="geometry" />
        </mxCell>
        <mxCell id="8EJtq8u64zGqU2wGf3lV-44" style="edgeStyle=orthogonalEdgeStyle;rounded=0;orthogonalLoop=1;jettySize=auto;html=1;entryX=1;entryY=0.5;entryDx=0;entryDy=0;" edge="1" parent="1" source="8EJtq8u64zGqU2wGf3lV-39" target="8EJtq8u64zGqU2wGf3lV-42">
          <mxGeometry relative="1" as="geometry" />
        </mxCell>
        <mxCell id="8EJtq8u64zGqU2wGf3lV-45" style="edgeStyle=orthogonalEdgeStyle;rounded=0;orthogonalLoop=1;jettySize=auto;html=1;entryX=1;entryY=0.5;entryDx=0;entryDy=0;" edge="1" parent="1" source="8EJtq8u64zGqU2wGf3lV-39" target="8EJtq8u64zGqU2wGf3lV-43">
          <mxGeometry relative="1" as="geometry" />
        </mxCell>
        <mxCell id="8EJtq8u64zGqU2wGf3lV-82" style="edgeStyle=orthogonalEdgeStyle;rounded=0;orthogonalLoop=1;jettySize=auto;html=1;entryX=1;entryY=0.5;entryDx=0;entryDy=0;" edge="1" parent="1" source="8EJtq8u64zGqU2wGf3lV-39" target="8EJtq8u64zGqU2wGf3lV-59">
          <mxGeometry relative="1" as="geometry">
            <Array as="points">
              <mxPoint x="110" y="390" />
              <mxPoint x="110" y="870" />
            </Array>
          </mxGeometry>
        </mxCell>
        <mxCell id="8EJtq8u64zGqU2wGf3lV-83" style="edgeStyle=orthogonalEdgeStyle;rounded=0;orthogonalLoop=1;jettySize=auto;html=1;entryX=1;entryY=0.5;entryDx=0;entryDy=0;" edge="1" parent="1" source="8EJtq8u64zGqU2wGf3lV-39" target="8EJtq8u64zGqU2wGf3lV-66">
          <mxGeometry relative="1" as="geometry">
            <Array as="points">
              <mxPoint x="110" y="390" />
              <mxPoint x="110" y="1090" />
            </Array>
          </mxGeometry>
        </mxCell>
        <mxCell id="8EJtq8u64zGqU2wGf3lV-84" style="edgeStyle=orthogonalEdgeStyle;rounded=0;orthogonalLoop=1;jettySize=auto;html=1;entryX=1;entryY=0.5;entryDx=0;entryDy=0;" edge="1" parent="1" source="8EJtq8u64zGqU2wGf3lV-39" target="8EJtq8u64zGqU2wGf3lV-74">
          <mxGeometry relative="1" as="geometry">
            <Array as="points">
              <mxPoint x="110" y="390" />
              <mxPoint x="110" y="1280" />
            </Array>
          </mxGeometry>
        </mxCell>
        <mxCell id="8EJtq8u64zGqU2wGf3lV-85" style="edgeStyle=orthogonalEdgeStyle;rounded=0;orthogonalLoop=1;jettySize=auto;html=1;entryX=1;entryY=0.5;entryDx=0;entryDy=0;" edge="1" parent="1" source="8EJtq8u64zGqU2wGf3lV-39" target="8EJtq8u64zGqU2wGf3lV-77">
          <mxGeometry relative="1" as="geometry">
            <Array as="points">
              <mxPoint x="110" y="390" />
              <mxPoint x="110" y="1430" />
            </Array>
          </mxGeometry>
        </mxCell>
        <mxCell id="8EJtq8u64zGqU2wGf3lV-39" value="Support" style="rounded=1;whiteSpace=wrap;html=1;gradientColor=#d5739d;fillColor=#e6d0de;strokeColor=#996185;" vertex="1" parent="1">
          <mxGeometry x="150" y="360" width="120" height="60" as="geometry" />
        </mxCell>
        <mxCell id="8EJtq8u64zGqU2wGf3lV-52" value="" style="edgeStyle=orthogonalEdgeStyle;rounded=0;orthogonalLoop=1;jettySize=auto;html=1;" edge="1" parent="1" source="8EJtq8u64zGqU2wGf3lV-40" target="8EJtq8u64zGqU2wGf3lV-51">
          <mxGeometry relative="1" as="geometry" />
        </mxCell>
        <mxCell id="8EJtq8u64zGqU2wGf3lV-40" value="Management of Spring IoC container and IoC container caching between tests" style="rounded=1;whiteSpace=wrap;html=1;gradientColor=#7ea6e0;fillColor=#dae8fc;strokeColor=#6c8ebf;" vertex="1" parent="1">
          <mxGeometry x="-170" y="360" width="240" height="60" as="geometry" />
        </mxCell>
        <mxCell id="8EJtq8u64zGqU2wGf3lV-47" value="" style="edgeStyle=orthogonalEdgeStyle;rounded=0;orthogonalLoop=1;jettySize=auto;html=1;" edge="1" parent="1" source="8EJtq8u64zGqU2wGf3lV-42" target="8EJtq8u64zGqU2wGf3lV-46">
          <mxGeometry relative="1" as="geometry" />
        </mxCell>
        <mxCell id="8EJtq8u64zGqU2wGf3lV-42" value="Dependency Injection in tests" style="rounded=1;whiteSpace=wrap;html=1;gradientColor=#7ea6e0;fillColor=#dae8fc;strokeColor=#6c8ebf;" vertex="1" parent="1">
          <mxGeometry x="-170" y="60" width="240" height="60" as="geometry" />
        </mxCell>
        <mxCell id="8EJtq8u64zGqU2wGf3lV-56" value="" style="edgeStyle=orthogonalEdgeStyle;rounded=0;orthogonalLoop=1;jettySize=auto;html=1;" edge="1" parent="1" source="8EJtq8u64zGqU2wGf3lV-43" target="8EJtq8u64zGqU2wGf3lV-55">
          <mxGeometry relative="1" as="geometry" />
        </mxCell>
        <mxCell id="8EJtq8u64zGqU2wGf3lV-43" value="Transaction management appropriate to integration testing" style="rounded=1;whiteSpace=wrap;html=1;gradientColor=#7ea6e0;fillColor=#dae8fc;strokeColor=#6c8ebf;" vertex="1" parent="1">
          <mxGeometry x="-170" y="580" width="240" height="60" as="geometry" />
        </mxCell>
        <mxCell id="8EJtq8u64zGqU2wGf3lV-46" value="Spring will create and manage IoC container for tests" style="rounded=0;whiteSpace=wrap;html=1;" vertex="1" parent="1">
          <mxGeometry x="-550" y="60" width="300" height="60" as="geometry" />
        </mxCell>
        <mxCell id="8EJtq8u64zGqU2wGf3lV-48" value="Context can be reused between tests" style="rounded=0;whiteSpace=wrap;html=1;" vertex="1" parent="1">
          <mxGeometry x="-550" y="120" width="300" height="60" as="geometry" />
        </mxCell>
        <mxCell id="8EJtq8u64zGqU2wGf3lV-49" value="Main purpose of context being reused is to improve tests execution time" style="rounded=0;whiteSpace=wrap;html=1;" vertex="1" parent="1">
          <mxGeometry x="-550" width="300" height="60" as="geometry" />
        </mxCell>
        <mxCell id="8EJtq8u64zGqU2wGf3lV-50" value="Execution times of integration tests might be long mainly because of Embedded Database,&#xa;Hibernate and other components that are created once context is created" style="rounded=0;whiteSpace=wrap;html=1;" vertex="1" parent="1">
          <mxGeometry x="-550" y="-60" width="300" height="60" as="geometry" />
        </mxCell>
        <mxCell id="8EJtq8u64zGqU2wGf3lV-51" value="Allows for easy Spring Test definition with usage of @RunWith(SpringRunner.class)" style="rounded=0;whiteSpace=wrap;html=1;" vertex="1" parent="1">
          <mxGeometry x="-550" y="360" width="300" height="60" as="geometry" />
        </mxCell>
        <mxCell id="8EJtq8u64zGqU2wGf3lV-53" value="@ContextConfiguration can be used in tests to configure context" style="rounded=0;whiteSpace=wrap;html=1;" vertex="1" parent="1">
          <mxGeometry x="-550" y="420" width="300" height="60" as="geometry" />
        </mxCell>
        <mxCell id="8EJtq8u64zGqU2wGf3lV-54" value="Support for @Autowired, @Inject ..." style="rounded=0;whiteSpace=wrap;html=1;" vertex="1" parent="1">
          <mxGeometry x="-550" y="300" width="300" height="60" as="geometry" />
        </mxCell>
        <mxCell id="8EJtq8u64zGqU2wGf3lV-55" value="Resolves issue with test affecting each other on data level by implementing proper transaction&#xa;management" style="rounded=0;whiteSpace=wrap;html=1;" vertex="1" parent="1">
          <mxGeometry x="-550" y="580" width="300" height="60" as="geometry" />
        </mxCell>
        <mxCell id="8EJtq8u64zGqU2wGf3lV-57" value="By default, all transactions are roll-back transactions" style="rounded=0;whiteSpace=wrap;html=1;" vertex="1" parent="1">
          <mxGeometry x="-550" y="640" width="300" height="60" as="geometry" />
        </mxCell>
        <mxCell id="8EJtq8u64zGqU2wGf3lV-58" value="Gives ability to commit transactions if required" style="rounded=0;whiteSpace=wrap;html=1;" vertex="1" parent="1">
          <mxGeometry x="-550" y="700" width="300" height="60" as="geometry" />
        </mxCell>
        <mxCell id="8EJtq8u64zGqU2wGf3lV-62" value="" style="edgeStyle=orthogonalEdgeStyle;rounded=0;orthogonalLoop=1;jettySize=auto;html=1;" edge="1" parent="1" source="8EJtq8u64zGqU2wGf3lV-59" target="8EJtq8u64zGqU2wGf3lV-61">
          <mxGeometry relative="1" as="geometry" />
        </mxCell>
        <mxCell id="8EJtq8u64zGqU2wGf3lV-73" style="edgeStyle=orthogonalEdgeStyle;rounded=0;orthogonalLoop=1;jettySize=auto;html=1;entryX=1;entryY=0.5;entryDx=0;entryDy=0;" edge="1" parent="1" source="8EJtq8u64zGqU2wGf3lV-59" target="8EJtq8u64zGqU2wGf3lV-65">
          <mxGeometry relative="1" as="geometry" />
        </mxCell>
        <mxCell id="8EJtq8u64zGqU2wGf3lV-59" value="JDBC Testing Support" style="rounded=1;whiteSpace=wrap;html=1;gradientColor=#7ea6e0;fillColor=#dae8fc;strokeColor=#6c8ebf;" vertex="1" parent="1">
          <mxGeometry x="-160" y="840" width="240" height="60" as="geometry" />
        </mxCell>
        <mxCell id="8EJtq8u64zGqU2wGf3lV-61" value="JdbcTestUtils provides JDBC related utility functions" style="rounded=0;whiteSpace=wrap;html=1;" vertex="1" parent="1">
          <mxGeometry x="-480" y="840" width="240" height="60" as="geometry" />
        </mxCell>
        <mxCell id="8EJtq8u64zGqU2wGf3lV-65" value="countRowsInTable, countRowsInTableWhere, deleteFromTables,&#xa;deleteFromTableWhere, ..." style="rounded=0;whiteSpace=wrap;html=1;" vertex="1" parent="1">
          <mxGeometry x="-480" y="940" width="240" height="60" as="geometry" />
        </mxCell>
        <mxCell id="8EJtq8u64zGqU2wGf3lV-72" value="" style="edgeStyle=orthogonalEdgeStyle;rounded=0;orthogonalLoop=1;jettySize=auto;html=1;" edge="1" parent="1" source="8EJtq8u64zGqU2wGf3lV-66" target="8EJtq8u64zGqU2wGf3lV-67">
          <mxGeometry relative="1" as="geometry" />
        </mxCell>
        <mxCell id="8EJtq8u64zGqU2wGf3lV-66" value="Spring MVC Testing Support" style="rounded=1;whiteSpace=wrap;html=1;gradientColor=#7ea6e0;fillColor=#dae8fc;strokeColor=#6c8ebf;" vertex="1" parent="1">
          <mxGeometry x="-160" y="1060" width="240" height="60" as="geometry" />
        </mxCell>
        <mxCell id="8EJtq8u64zGqU2wGf3lV-69" value="" style="edgeStyle=orthogonalEdgeStyle;rounded=0;orthogonalLoop=1;jettySize=auto;html=1;" edge="1" parent="1" source="8EJtq8u64zGqU2wGf3lV-67" target="8EJtq8u64zGqU2wGf3lV-68">
          <mxGeometry relative="1" as="geometry" />
        </mxCell>
        <mxCell id="8EJtq8u64zGqU2wGf3lV-67" value="Allow for easy setup with:" style="rounded=0;whiteSpace=wrap;html=1;" vertex="1" parent="1">
          <mxGeometry x="-480" y="1060" width="240" height="60" as="geometry" />
        </mxCell>
        <mxCell id="8EJtq8u64zGqU2wGf3lV-68" value="@RunWith(SpringRunner.class)" style="rounded=0;whiteSpace=wrap;html=1;" vertex="1" parent="1">
          <mxGeometry x="-800" y="1060" width="240" height="60" as="geometry" />
        </mxCell>
        <mxCell id="8EJtq8u64zGqU2wGf3lV-70" value="@WebAppConfiguration" style="rounded=0;whiteSpace=wrap;html=1;" vertex="1" parent="1">
          <mxGeometry x="-800" y="1120" width="240" height="60" as="geometry" />
        </mxCell>
        <mxCell id="8EJtq8u64zGqU2wGf3lV-71" value="@ContextConfiguration" style="rounded=0;whiteSpace=wrap;html=1;" vertex="1" parent="1">
          <mxGeometry x="-800" y="1000" width="240" height="60" as="geometry" />
        </mxCell>
        <mxCell id="8EJtq8u64zGqU2wGf3lV-76" value="" style="edgeStyle=orthogonalEdgeStyle;rounded=0;orthogonalLoop=1;jettySize=auto;html=1;" edge="1" parent="1" source="8EJtq8u64zGqU2wGf3lV-74" target="8EJtq8u64zGqU2wGf3lV-75">
          <mxGeometry relative="1" as="geometry" />
        </mxCell>
        <mxCell id="8EJtq8u64zGqU2wGf3lV-74" value="HtmlUnit Integration" style="rounded=1;whiteSpace=wrap;html=1;gradientColor=#7ea6e0;fillColor=#dae8fc;strokeColor=#6c8ebf;" vertex="1" parent="1">
          <mxGeometry x="-160" y="1250" width="240" height="60" as="geometry" />
        </mxCell>
        <mxCell id="8EJtq8u64zGqU2wGf3lV-75" value="Simplifies end-to-end testing for HTML views" style="rounded=0;whiteSpace=wrap;html=1;" vertex="1" parent="1">
          <mxGeometry x="-470" y="1250" width="240" height="60" as="geometry" />
        </mxCell>
        <mxCell id="8EJtq8u64zGqU2wGf3lV-79" value="" style="edgeStyle=orthogonalEdgeStyle;rounded=0;orthogonalLoop=1;jettySize=auto;html=1;" edge="1" parent="1" source="8EJtq8u64zGqU2wGf3lV-77" target="8EJtq8u64zGqU2wGf3lV-78">
          <mxGeometry relative="1" as="geometry" />
        </mxCell>
        <mxCell id="8EJtq8u64zGqU2wGf3lV-77" value="Client-Side REST Tests" style="rounded=1;whiteSpace=wrap;html=1;gradientColor=#7ea6e0;fillColor=#dae8fc;strokeColor=#6c8ebf;" vertex="1" parent="1">
          <mxGeometry x="-160" y="1400" width="240" height="60" as="geometry" />
        </mxCell>
        <mxCell id="8EJtq8u64zGqU2wGf3lV-78" value="Allows you to test Client code that interacts with mocked REST Service" style="rounded=0;whiteSpace=wrap;html=1;" vertex="1" parent="1">
          <mxGeometry x="-470" y="1400" width="240" height="60" as="geometry" />
        </mxCell>
        <mxCell id="8EJtq8u64zGqU2wGf3lV-81" value="Use RestTemplate with MockRestServiceServer to make assertions on mock" style="rounded=0;whiteSpace=wrap;html=1;" vertex="1" parent="1">
          <mxGeometry x="-470" y="1460" width="240" height="60" as="geometry" />
        </mxCell>
        <mxCell id="8EJtq8u64zGqU2wGf3lV-88" value="" style="edgeStyle=orthogonalEdgeStyle;rounded=0;orthogonalLoop=1;jettySize=auto;html=1;" edge="1" parent="1" source="8EJtq8u64zGqU2wGf3lV-86" target="8EJtq8u64zGqU2wGf3lV-87">
          <mxGeometry relative="1" as="geometry" />
        </mxCell>
        <mxCell id="8EJtq8u64zGqU2wGf3lV-138" value="" style="edgeStyle=orthogonalEdgeStyle;rounded=0;orthogonalLoop=1;jettySize=auto;html=1;" edge="1" parent="1" source="8EJtq8u64zGqU2wGf3lV-86" target="8EJtq8u64zGqU2wGf3lV-137">
          <mxGeometry relative="1" as="geometry" />
        </mxCell>
        <mxCell id="8EJtq8u64zGqU2wGf3lV-161" style="edgeStyle=orthogonalEdgeStyle;rounded=0;orthogonalLoop=1;jettySize=auto;html=1;entryX=1;entryY=0.5;entryDx=0;entryDy=0;" edge="1" parent="1" source="8EJtq8u64zGqU2wGf3lV-86" target="8EJtq8u64zGqU2wGf3lV-145">
          <mxGeometry relative="1" as="geometry" />
        </mxCell>
        <mxCell id="8EJtq8u64zGqU2wGf3lV-162" style="edgeStyle=orthogonalEdgeStyle;rounded=0;orthogonalLoop=1;jettySize=auto;html=1;entryX=1;entryY=0.5;entryDx=0;entryDy=0;" edge="1" parent="1" source="8EJtq8u64zGqU2wGf3lV-86" target="8EJtq8u64zGqU2wGf3lV-148">
          <mxGeometry relative="1" as="geometry" />
        </mxCell>
        <mxCell id="8EJtq8u64zGqU2wGf3lV-163" style="edgeStyle=orthogonalEdgeStyle;rounded=0;orthogonalLoop=1;jettySize=auto;html=1;entryX=1;entryY=0.5;entryDx=0;entryDy=0;" edge="1" parent="1" source="8EJtq8u64zGqU2wGf3lV-86" target="8EJtq8u64zGqU2wGf3lV-154">
          <mxGeometry relative="1" as="geometry" />
        </mxCell>
        <mxCell id="8EJtq8u64zGqU2wGf3lV-164" style="edgeStyle=orthogonalEdgeStyle;rounded=0;orthogonalLoop=1;jettySize=auto;html=1;entryX=1;entryY=0.5;entryDx=0;entryDy=0;" edge="1" parent="1" source="8EJtq8u64zGqU2wGf3lV-86" target="8EJtq8u64zGqU2wGf3lV-155">
          <mxGeometry relative="1" as="geometry" />
        </mxCell>
        <mxCell id="8EJtq8u64zGqU2wGf3lV-165" style="edgeStyle=orthogonalEdgeStyle;rounded=0;orthogonalLoop=1;jettySize=auto;html=1;entryX=1;entryY=0.5;entryDx=0;entryDy=0;" edge="1" parent="1" source="8EJtq8u64zGqU2wGf3lV-86" target="8EJtq8u64zGqU2wGf3lV-156">
          <mxGeometry relative="1" as="geometry" />
        </mxCell>
        <mxCell id="8EJtq8u64zGqU2wGf3lV-166" style="edgeStyle=orthogonalEdgeStyle;rounded=0;orthogonalLoop=1;jettySize=auto;html=1;entryX=1;entryY=0.5;entryDx=0;entryDy=0;" edge="1" parent="1" source="8EJtq8u64zGqU2wGf3lV-86" target="8EJtq8u64zGqU2wGf3lV-157">
          <mxGeometry relative="1" as="geometry" />
        </mxCell>
        <mxCell id="8EJtq8u64zGqU2wGf3lV-167" style="edgeStyle=orthogonalEdgeStyle;rounded=0;orthogonalLoop=1;jettySize=auto;html=1;entryX=1;entryY=0.5;entryDx=0;entryDy=0;" edge="1" parent="1" source="8EJtq8u64zGqU2wGf3lV-86" target="8EJtq8u64zGqU2wGf3lV-158">
          <mxGeometry relative="1" as="geometry" />
        </mxCell>
        <mxCell id="8EJtq8u64zGqU2wGf3lV-168" style="edgeStyle=orthogonalEdgeStyle;rounded=0;orthogonalLoop=1;jettySize=auto;html=1;entryX=1;entryY=0.5;entryDx=0;entryDy=0;" edge="1" parent="1" source="8EJtq8u64zGqU2wGf3lV-86" target="8EJtq8u64zGqU2wGf3lV-159">
          <mxGeometry relative="1" as="geometry" />
        </mxCell>
        <mxCell id="8EJtq8u64zGqU2wGf3lV-169" style="edgeStyle=orthogonalEdgeStyle;rounded=0;orthogonalLoop=1;jettySize=auto;html=1;entryX=1;entryY=0.5;entryDx=0;entryDy=0;" edge="1" parent="1" source="8EJtq8u64zGqU2wGf3lV-86" target="8EJtq8u64zGqU2wGf3lV-160">
          <mxGeometry relative="1" as="geometry" />
        </mxCell>
        <mxCell id="8EJtq8u64zGqU2wGf3lV-86" value="Annotations" style="rounded=1;whiteSpace=wrap;html=1;gradientColor=#d5739d;fillColor=#e6d0de;strokeColor=#996185;" vertex="1" parent="1">
          <mxGeometry x="350" y="-340" width="120" height="60" as="geometry" />
        </mxCell>
        <mxCell id="8EJtq8u64zGqU2wGf3lV-87" value="@ContextConfiguration" style="rounded=0;whiteSpace=wrap;html=1;" vertex="1" parent="1">
          <mxGeometry x="630" y="-340" width="180" height="60" as="geometry" />
        </mxCell>
        <mxCell id="8EJtq8u64zGqU2wGf3lV-89" value="@BootstrapWith" style="rounded=0;whiteSpace=wrap;html=1;" vertex="1" parent="1">
          <mxGeometry x="630" y="-280" width="180" height="60" as="geometry" />
        </mxCell>
        <mxCell id="8EJtq8u64zGqU2wGf3lV-92" value="" style="edgeStyle=orthogonalEdgeStyle;rounded=0;orthogonalLoop=1;jettySize=auto;html=1;" edge="1" parent="1" source="8EJtq8u64zGqU2wGf3lV-90" target="8EJtq8u64zGqU2wGf3lV-91">
          <mxGeometry relative="1" as="geometry" />
        </mxCell>
        <mxCell id="8EJtq8u64zGqU2wGf3lV-90" value="@DirtiesContext" style="rounded=0;whiteSpace=wrap;html=1;" vertex="1" parent="1">
          <mxGeometry x="630" y="-220" width="180" height="60" as="geometry" />
        </mxCell>
        <mxCell id="8EJtq8u64zGqU2wGf3lV-91" value="Marks test as one that modifies state of context, and it means that context should be recreated&#xa;prior next test execution because otherwise modified context state might affect test execution" style="rounded=0;whiteSpace=wrap;html=1;" vertex="1" parent="1">
          <mxGeometry x="890" y="-220" width="370" height="60" as="geometry" />
        </mxCell>
        <mxCell id="8EJtq8u64zGqU2wGf3lV-93" value="@ActiveProfiles" style="rounded=0;whiteSpace=wrap;html=1;" vertex="1" parent="1">
          <mxGeometry x="630" y="-400" width="180" height="60" as="geometry" />
        </mxCell>
        <mxCell id="8EJtq8u64zGqU2wGf3lV-94" value="@TestPropertySource" style="rounded=0;whiteSpace=wrap;html=1;" vertex="1" parent="1">
          <mxGeometry x="630" y="-460" width="180" height="60" as="geometry" />
        </mxCell>
        <mxCell id="8EJtq8u64zGqU2wGf3lV-116" value="" style="edgeStyle=orthogonalEdgeStyle;rounded=0;orthogonalLoop=1;jettySize=auto;html=1;" edge="1" parent="1" source="8EJtq8u64zGqU2wGf3lV-95" target="8EJtq8u64zGqU2wGf3lV-115">
          <mxGeometry relative="1" as="geometry" />
        </mxCell>
        <mxCell id="8EJtq8u64zGqU2wGf3lV-95" value="@WebAppConfiguration" style="rounded=0;whiteSpace=wrap;html=1;" vertex="1" parent="1">
          <mxGeometry x="630" y="-520" width="180" height="60" as="geometry" />
        </mxCell>
        <mxCell id="8EJtq8u64zGqU2wGf3lV-96" value="@ContextHierarchy" style="rounded=0;whiteSpace=wrap;html=1;" vertex="1" parent="1">
          <mxGeometry x="630" y="-580" width="180" height="60" as="geometry" />
        </mxCell>
        <mxCell id="8EJtq8u64zGqU2wGf3lV-112" value="" style="edgeStyle=orthogonalEdgeStyle;rounded=0;orthogonalLoop=1;jettySize=auto;html=1;" edge="1" parent="1" source="8EJtq8u64zGqU2wGf3lV-97" target="8EJtq8u64zGqU2wGf3lV-111">
          <mxGeometry relative="1" as="geometry" />
        </mxCell>
        <mxCell id="8EJtq8u64zGqU2wGf3lV-97" value="@TestExecutionListeners" style="rounded=0;whiteSpace=wrap;html=1;" vertex="1" parent="1">
          <mxGeometry x="630" y="-640" width="180" height="60" as="geometry" />
        </mxCell>
        <mxCell id="8EJtq8u64zGqU2wGf3lV-98" value="@Commit" style="rounded=0;whiteSpace=wrap;html=1;" vertex="1" parent="1">
          <mxGeometry x="630" y="-700" width="180" height="60" as="geometry" />
        </mxCell>
        <mxCell id="8EJtq8u64zGqU2wGf3lV-99" value="@Rollback" style="rounded=0;whiteSpace=wrap;html=1;" vertex="1" parent="1">
          <mxGeometry x="630" y="-760" width="180" height="60" as="geometry" />
        </mxCell>
        <mxCell id="8EJtq8u64zGqU2wGf3lV-100" value="@BeforeTransaction" style="rounded=0;whiteSpace=wrap;html=1;" vertex="1" parent="1">
          <mxGeometry x="630" y="-820" width="180" height="60" as="geometry" />
        </mxCell>
        <mxCell id="8EJtq8u64zGqU2wGf3lV-101" value="@AfterTransaction" style="rounded=0;whiteSpace=wrap;html=1;" vertex="1" parent="1">
          <mxGeometry x="630" y="-880" width="180" height="60" as="geometry" />
        </mxCell>
        <mxCell id="8EJtq8u64zGqU2wGf3lV-104" value="" style="edgeStyle=orthogonalEdgeStyle;rounded=0;orthogonalLoop=1;jettySize=auto;html=1;" edge="1" parent="1" source="8EJtq8u64zGqU2wGf3lV-102" target="8EJtq8u64zGqU2wGf3lV-103">
          <mxGeometry relative="1" as="geometry" />
        </mxCell>
        <mxCell id="8EJtq8u64zGqU2wGf3lV-102" value="@Sql" style="rounded=0;whiteSpace=wrap;html=1;" vertex="1" parent="1">
          <mxGeometry x="630" y="-940" width="180" height="60" as="geometry" />
        </mxCell>
        <mxCell id="8EJtq8u64zGqU2wGf3lV-103" value="Indicates SQL scripts that should be executed against database during integration test" style="rounded=0;whiteSpace=wrap;html=1;" vertex="1" parent="1">
          <mxGeometry x="890" y="-940" width="180" height="60" as="geometry" />
        </mxCell>
        <mxCell id="8EJtq8u64zGqU2wGf3lV-107" value="" style="edgeStyle=orthogonalEdgeStyle;rounded=0;orthogonalLoop=1;jettySize=auto;html=1;" edge="1" parent="1" source="8EJtq8u64zGqU2wGf3lV-105" target="8EJtq8u64zGqU2wGf3lV-106">
          <mxGeometry relative="1" as="geometry" />
        </mxCell>
        <mxCell id="8EJtq8u64zGqU2wGf3lV-105" value="@SqlConfig" style="rounded=0;whiteSpace=wrap;html=1;" vertex="1" parent="1">
          <mxGeometry x="630" y="-1000" width="180" height="60" as="geometry" />
        </mxCell>
        <mxCell id="8EJtq8u64zGqU2wGf3lV-106" value="Defines metadata used for SQL script parsing" style="rounded=0;whiteSpace=wrap;html=1;" vertex="1" parent="1">
          <mxGeometry x="890" y="-1000" width="180" height="60" as="geometry" />
        </mxCell>
        <mxCell id="8EJtq8u64zGqU2wGf3lV-110" value="" style="edgeStyle=orthogonalEdgeStyle;rounded=0;orthogonalLoop=1;jettySize=auto;html=1;" edge="1" parent="1" source="8EJtq8u64zGqU2wGf3lV-108" target="8EJtq8u64zGqU2wGf3lV-109">
          <mxGeometry relative="1" as="geometry" />
        </mxCell>
        <mxCell id="8EJtq8u64zGqU2wGf3lV-108" value="@SqlGroup" style="rounded=0;whiteSpace=wrap;html=1;" vertex="1" parent="1">
          <mxGeometry x="630" y="-1060" width="180" height="60" as="geometry" />
        </mxCell>
        <mxCell id="8EJtq8u64zGqU2wGf3lV-109" value="Allows you to use multiple @Sql annotations" style="rounded=0;whiteSpace=wrap;html=1;" vertex="1" parent="1">
          <mxGeometry x="890" y="-1060" width="180" height="60" as="geometry" />
        </mxCell>
        <mxCell id="8EJtq8u64zGqU2wGf3lV-111" value="Allows registration of TestExecutionListener which allows for customization of test&#xa;execution" style="rounded=0;whiteSpace=wrap;html=1;" vertex="1" parent="1">
          <mxGeometry x="1010" y="-640" width="280" height="60" as="geometry" />
        </mxCell>
        <mxCell id="8EJtq8u64zGqU2wGf3lV-113" value="Example of TestExecutionListener that is registered by default is&#xa;DirtiesContextTestExecutionListener" style="rounded=0;whiteSpace=wrap;html=1;" vertex="1" parent="1">
          <mxGeometry x="1010" y="-700" width="280" height="60" as="geometry" />
        </mxCell>
        <mxCell id="8EJtq8u64zGqU2wGf3lV-115" value="class-level annotation that triggers creation of MockServletContext, which serves as the&#xa;ServletContext for the testâ€™s WebApplicationContext" style="rounded=0;whiteSpace=wrap;html=1;" vertex="1" parent="1">
          <mxGeometry x="1010" y="-520" width="280" height="60" as="geometry" />
        </mxCell>
        <mxCell id="8EJtq8u64zGqU2wGf3lV-117" value="Indicates that ApplicationContext loaded for an integration test should be a&#xa;WebApplicationContext" style="rounded=0;whiteSpace=wrap;html=1;" vertex="1" parent="1">
          <mxGeometry x="1010" y="-460" width="280" height="60" as="geometry" />
        </mxCell>
        <mxCell id="8EJtq8u64zGqU2wGf3lV-120" value="" style="edgeStyle=orthogonalEdgeStyle;rounded=0;orthogonalLoop=1;jettySize=auto;html=1;" edge="1" parent="1" source="8EJtq8u64zGqU2wGf3lV-118" target="8EJtq8u64zGqU2wGf3lV-119">
          <mxGeometry relative="1" as="geometry" />
        </mxCell>
        <mxCell id="8EJtq8u64zGqU2wGf3lV-122" value="" style="edgeStyle=orthogonalEdgeStyle;rounded=0;orthogonalLoop=1;jettySize=auto;html=1;" edge="1" parent="1" source="8EJtq8u64zGqU2wGf3lV-118" target="8EJtq8u64zGqU2wGf3lV-121">
          <mxGeometry relative="1" as="geometry" />
        </mxCell>
        <mxCell id="8EJtq8u64zGqU2wGf3lV-118" value="Shared Application Context" style="rounded=1;whiteSpace=wrap;html=1;gradientColor=#d5739d;fillColor=#e6d0de;strokeColor=#996185;" vertex="1" parent="1">
          <mxGeometry x="375" y="920" width="120" height="60" as="geometry" />
        </mxCell>
        <mxCell id="8EJtq8u64zGqU2wGf3lV-124" value="" style="edgeStyle=orthogonalEdgeStyle;rounded=0;orthogonalLoop=1;jettySize=auto;html=1;" edge="1" parent="1" source="8EJtq8u64zGqU2wGf3lV-119" target="8EJtq8u64zGqU2wGf3lV-123">
          <mxGeometry relative="1" as="geometry" />
        </mxCell>
        <mxCell id="8EJtq8u64zGqU2wGf3lV-119" value="Sharing Context Definition" style="rounded=1;whiteSpace=wrap;html=1;gradientColor=#7ea6e0;fillColor=#dae8fc;strokeColor=#6c8ebf;" vertex="1" parent="1">
          <mxGeometry x="575" y="920" width="120" height="60" as="geometry" />
        </mxCell>
        <mxCell id="8EJtq8u64zGqU2wGf3lV-129" value="" style="edgeStyle=orthogonalEdgeStyle;rounded=0;orthogonalLoop=1;jettySize=auto;html=1;" edge="1" parent="1" source="8EJtq8u64zGqU2wGf3lV-121" target="8EJtq8u64zGqU2wGf3lV-128">
          <mxGeometry relative="1" as="geometry" />
        </mxCell>
        <mxCell id="8EJtq8u64zGqU2wGf3lV-121" value="Sharing Context Instance" style="rounded=1;whiteSpace=wrap;html=1;gradientColor=#7ea6e0;fillColor=#dae8fc;strokeColor=#6c8ebf;" vertex="1" parent="1">
          <mxGeometry x="375" y="1060" width="120" height="60" as="geometry" />
        </mxCell>
        <mxCell id="8EJtq8u64zGqU2wGf3lV-123" value="Use Base Class for All Tests which will contain @ContextConfiguration and other&#xa;annotations, like for example @ActiveProfiles etc." style="rounded=0;whiteSpace=wrap;html=1;" vertex="1" parent="1">
          <mxGeometry x="775" y="920" width="285" height="60" as="geometry" />
        </mxCell>
        <mxCell id="8EJtq8u64zGqU2wGf3lV-125" value="Use Custom Annotation that will contain context configuration" style="rounded=0;whiteSpace=wrap;html=1;" vertex="1" parent="1">
          <mxGeometry x="775" y="860" width="285" height="60" as="geometry" />
        </mxCell>
        <mxCell id="8EJtq8u64zGqU2wGf3lV-126" value="Use Test Configuration that Inherits Application Configuration" style="rounded=0;whiteSpace=wrap;html=1;" vertex="1" parent="1">
          <mxGeometry x="775" y="800" width="285" height="60" as="geometry" />
        </mxCell>
        <mxCell id="8EJtq8u64zGqU2wGf3lV-127" value="Use Base Interface for all Tests that will contain context configuration" style="rounded=0;whiteSpace=wrap;html=1;" vertex="1" parent="1">
          <mxGeometry x="775" y="980" width="285" height="60" as="geometry" />
        </mxCell>
        <mxCell id="8EJtq8u64zGqU2wGf3lV-131" value="" style="edgeStyle=orthogonalEdgeStyle;rounded=0;orthogonalLoop=1;jettySize=auto;html=1;" edge="1" parent="1" source="8EJtq8u64zGqU2wGf3lV-128" target="8EJtq8u64zGqU2wGf3lV-130">
          <mxGeometry relative="1" as="geometry" />
        </mxCell>
        <mxCell id="8EJtq8u64zGqU2wGf3lV-135" value="" style="edgeStyle=orthogonalEdgeStyle;rounded=0;orthogonalLoop=1;jettySize=auto;html=1;" edge="1" parent="1" source="8EJtq8u64zGqU2wGf3lV-128" target="8EJtq8u64zGqU2wGf3lV-134">
          <mxGeometry relative="1" as="geometry" />
        </mxCell>
        <mxCell id="8EJtq8u64zGqU2wGf3lV-128" value="shared by default between all tests, as long as requested context&#xa;matches one that is already cached." style="rounded=0;whiteSpace=wrap;html=1;" vertex="1" parent="1">
          <mxGeometry x="575" y="1060" width="295" height="60" as="geometry" />
        </mxCell>
        <mxCell id="8EJtq8u64zGqU2wGf3lV-133" value="" style="edgeStyle=orthogonalEdgeStyle;rounded=0;orthogonalLoop=1;jettySize=auto;html=1;" edge="1" parent="1" source="8EJtq8u64zGqU2wGf3lV-130" target="8EJtq8u64zGqU2wGf3lV-132">
          <mxGeometry relative="1" as="geometry" />
        </mxCell>
        <mxCell id="8EJtq8u64zGqU2wGf3lV-130" value="key" style="rounded=0;whiteSpace=wrap;html=1;" vertex="1" parent="1">
          <mxGeometry x="670" y="1210" width="105" height="60" as="geometry" />
        </mxCell>
        <mxCell id="8EJtq8u64zGqU2wGf3lV-132" value="MergedContextConfiguration" style="rounded=0;whiteSpace=wrap;html=1;" vertex="1" parent="1">
          <mxGeometry x="855" y="1210" width="195" height="60" as="geometry" />
        </mxCell>
        <mxCell id="8EJtq8u64zGqU2wGf3lV-134" value="ContextCache" style="rounded=0;whiteSpace=wrap;html=1;" vertex="1" parent="1">
          <mxGeometry x="950" y="1060" width="130" height="60" as="geometry" />
        </mxCell>
        <mxCell id="8EJtq8u64zGqU2wGf3lV-140" value="" style="edgeStyle=orthogonalEdgeStyle;rounded=0;orthogonalLoop=1;jettySize=auto;html=1;" edge="1" parent="1" source="8EJtq8u64zGqU2wGf3lV-137" target="8EJtq8u64zGqU2wGf3lV-139">
          <mxGeometry relative="1" as="geometry" />
        </mxCell>
        <mxCell id="8EJtq8u64zGqU2wGf3lV-137" value="@SpringBootTest" style="rounded=1;whiteSpace=wrap;html=1;gradientColor=#7ea6e0;fillColor=#dae8fc;strokeColor=#6c8ebf;" vertex="1" parent="1">
          <mxGeometry y="-340" width="120" height="60" as="geometry" />
        </mxCell>
        <mxCell id="8EJtq8u64zGqU2wGf3lV-139" value="alternative to&#xa;@ContextConfiguration, creates ApplicationContext through&#xa;SpringApplication, Enables Tests Auto-Configuration, Enables Spring Boot&#xa;Test Features" style="rounded=0;whiteSpace=wrap;html=1;" vertex="1" parent="1">
          <mxGeometry x="-430" y="-360" width="340" height="100" as="geometry" />
        </mxCell>
        <mxCell id="8EJtq8u64zGqU2wGf3lV-141" value="@MockBean" style="rounded=1;whiteSpace=wrap;html=1;gradientColor=#7ea6e0;fillColor=#dae8fc;strokeColor=#6c8ebf;" vertex="1" parent="1">
          <mxGeometry y="-230" width="120" height="60" as="geometry" />
        </mxCell>
        <mxCell id="8EJtq8u64zGqU2wGf3lV-144" value="@SpyBean" style="rounded=1;whiteSpace=wrap;html=1;gradientColor=#7ea6e0;fillColor=#dae8fc;strokeColor=#6c8ebf;" vertex="1" parent="1">
          <mxGeometry y="-130" width="120" height="60" as="geometry" />
        </mxCell>
        <mxCell id="8EJtq8u64zGqU2wGf3lV-147" value="" style="edgeStyle=orthogonalEdgeStyle;rounded=0;orthogonalLoop=1;jettySize=auto;html=1;" edge="1" parent="1" source="8EJtq8u64zGqU2wGf3lV-145" target="8EJtq8u64zGqU2wGf3lV-146">
          <mxGeometry relative="1" as="geometry" />
        </mxCell>
        <mxCell id="8EJtq8u64zGqU2wGf3lV-145" value="@WebMvcTest" style="rounded=1;whiteSpace=wrap;html=1;gradientColor=#7ea6e0;fillColor=#dae8fc;strokeColor=#6c8ebf;" vertex="1" parent="1">
          <mxGeometry y="-490" width="120" height="60" as="geometry" />
        </mxCell>
        <mxCell id="8EJtq8u64zGqU2wGf3lV-146" value="useful when test focuses only on Spring&#xa;MVC components" style="rounded=0;whiteSpace=wrap;html=1;" vertex="1" parent="1">
          <mxGeometry x="-350" y="-490" width="260" height="60" as="geometry" />
        </mxCell>
        <mxCell id="8EJtq8u64zGqU2wGf3lV-150" value="" style="edgeStyle=orthogonalEdgeStyle;rounded=0;orthogonalLoop=1;jettySize=auto;html=1;" edge="1" parent="1" source="8EJtq8u64zGqU2wGf3lV-148" target="8EJtq8u64zGqU2wGf3lV-149">
          <mxGeometry relative="1" as="geometry" />
        </mxCell>
        <mxCell id="8EJtq8u64zGqU2wGf3lV-148" value="Provides Web Environments" style="rounded=1;whiteSpace=wrap;html=1;gradientColor=#7ea6e0;fillColor=#dae8fc;strokeColor=#6c8ebf;" vertex="1" parent="1">
          <mxGeometry y="-600" width="120" height="60" as="geometry" />
        </mxCell>
        <mxCell id="8EJtq8u64zGqU2wGf3lV-149" value="RANDOM_PORT" style="rounded=0;whiteSpace=wrap;html=1;" vertex="1" parent="1">
          <mxGeometry x="-200" y="-600" width="120" height="60" as="geometry" />
        </mxCell>
        <mxCell id="8EJtq8u64zGqU2wGf3lV-151" value="MOCK (default)" style="rounded=0;whiteSpace=wrap;html=1;" vertex="1" parent="1">
          <mxGeometry x="-200" y="-660" width="120" height="60" as="geometry" />
        </mxCell>
        <mxCell id="8EJtq8u64zGqU2wGf3lV-152" value="DEFINED_PORT" style="rounded=0;whiteSpace=wrap;html=1;" vertex="1" parent="1">
          <mxGeometry x="-200" y="-720" width="120" height="60" as="geometry" />
        </mxCell>
        <mxCell id="8EJtq8u64zGqU2wGf3lV-153" value="NONE" style="rounded=0;whiteSpace=wrap;html=1;" vertex="1" parent="1">
          <mxGeometry x="-200" y="-780" width="120" height="60" as="geometry" />
        </mxCell>
        <mxCell id="8EJtq8u64zGqU2wGf3lV-154" value="@JsonTest" style="rounded=1;whiteSpace=wrap;html=1;gradientColor=#7ea6e0;fillColor=#dae8fc;strokeColor=#6c8ebf;" vertex="1" parent="1">
          <mxGeometry y="-700" width="120" height="60" as="geometry" />
        </mxCell>
        <mxCell id="8EJtq8u64zGqU2wGf3lV-155" value="@WebMvcTest" style="rounded=1;whiteSpace=wrap;html=1;gradientColor=#7ea6e0;fillColor=#dae8fc;strokeColor=#6c8ebf;" vertex="1" parent="1">
          <mxGeometry y="-800" width="120" height="60" as="geometry" />
        </mxCell>
        <mxCell id="8EJtq8u64zGqU2wGf3lV-156" value="@JdbcTest" style="rounded=1;whiteSpace=wrap;html=1;gradientColor=#7ea6e0;fillColor=#dae8fc;strokeColor=#6c8ebf;" vertex="1" parent="1">
          <mxGeometry y="-890" width="120" height="60" as="geometry" />
        </mxCell>
        <mxCell id="8EJtq8u64zGqU2wGf3lV-157" value="@DataJpaTest" style="rounded=1;whiteSpace=wrap;html=1;gradientColor=#7ea6e0;fillColor=#dae8fc;strokeColor=#6c8ebf;" vertex="1" parent="1">
          <mxGeometry y="-990" width="120" height="60" as="geometry" />
        </mxCell>
        <mxCell id="8EJtq8u64zGqU2wGf3lV-158" value="@JooqTest" style="rounded=1;whiteSpace=wrap;html=1;gradientColor=#7ea6e0;fillColor=#dae8fc;strokeColor=#6c8ebf;" vertex="1" parent="1">
          <mxGeometry y="-1090" width="120" height="60" as="geometry" />
        </mxCell>
        <mxCell id="8EJtq8u64zGqU2wGf3lV-159" value="@DataMongoTest" style="rounded=1;whiteSpace=wrap;html=1;gradientColor=#7ea6e0;fillColor=#dae8fc;strokeColor=#6c8ebf;" vertex="1" parent="1">
          <mxGeometry y="-1180" width="120" height="60" as="geometry" />
        </mxCell>
        <mxCell id="8EJtq8u64zGqU2wGf3lV-160" value="@RestClientTest" style="rounded=1;whiteSpace=wrap;html=1;gradientColor=#7ea6e0;fillColor=#dae8fc;strokeColor=#6c8ebf;" vertex="1" parent="1">
          <mxGeometry y="-1270" width="120" height="60" as="geometry" />
        </mxCell>
      </root>
    </mxGraphModel>
  </diagram>
</mxfile>
